<?xml version="1.0" ?><!DOCTYPE svg  PUBLIC '-//W3C//DTD SVG 1.1//EN'  'http://www.w3.org/Graphics/SVG/1.1/DTD/svg11.dtd'><svg height="32px" style="enable-background:new 0 0 28 32;" version="1.1" viewBox="0 0 28 32" width="28px" xml:space="preserve" xmlns="http://www.w3.org/2000/svg" xmlns:xlink="http://www.w3.org/1999/xlink"><g id="Layer_1"/><g id="comment_x5F_alt2_x5F_stroke"><path d="M14,4c5.516,0,10,4.484,10,10s-4.484,10-10,10c-0.707,0-1.473-0.105-2.34-0.316l-1.703-0.422   L8.496,24.23l-0.457,0.301l0.004-0.684l0.008-1.652l-1.16-1.176C5.027,19.129,4,16.637,4,14C4,8.484,8.484,4,14,4 M14,0   C6.27,0,0,6.27,0,14c0,3.832,1.547,7.297,4.043,9.828L4,32l6.703-4.434C11.766,27.828,12.859,28,14,28c7.73,0,14-6.27,14-14   S21.73,0,14,0L14,0z" style="fill:#4E4E50;"/></g></svg>