<?xml version="1.0" ?><svg height="16px" version="1.1" viewBox="0 0 16 16" width="16px" xmlns="http://www.w3.org/2000/svg" xmlns:sketch="http://www.bohemiancoding.com/sketch/ns" xmlns:xlink="http://www.w3.org/1999/xlink"><title/><defs/><g fill="none" fill-rule="evenodd" id="Icons with numbers" stroke="none" stroke-width="1"><g fill="#000000" id="Group" transform="translate(-768.000000, -192.000000)"><path d="M776,205 C775.092687,205 774.225692,204.86437 773.430064,204.617506 C772.617765,205.250987 771.248775,206.131104 769.912598,206.131104 C770.612692,205.468456 770.810743,204.184192 770.854217,203.228743 C769.703165,202.248586 769,200.938813 769,199.5 C769,196.462434 772.134007,194 776,194 C779.865993,194 783,196.462434 783,199.5 C783,202.537566 779.865993,205 776,205 Z M776,201 C776.552285,201 777,200.552285 777,200 C777,199.447715 776.552285,199 776,199 C775.447715,199 775,199.447715 775,200 C775,200.552285 775.447715,201 776,201 Z M773,201 C773.552285,201 774,200.552285 774,200 C774,199.447715 773.552285,199 773,199 C772.447715,199 772,199.447715 772,200 C772,200.552285 772.447715,201 773,201 Z M779,201 C779.552285,201 780,200.552285 780,200 C780,199.447715 779.552285,199 779,199 C778.447715,199 778,199.447715 778,200 C778,200.552285 778.447715,201 779,201 Z M779,201" id="Oval 247 copy"/></g></g></svg>